HIERARCHY
ROOT hip
{
  OFFSET 0 0 0
  CHANNELS 6 Xposition Yposition Zposition Zrotation Yrotation Xrotation
  JOINT abdomen
  {
    OFFSET 0 20.6881 -0.73152
    CHANNELS 3 Zrotation Xrotation Yrotation
    JOINT chest
    {
      OFFSET 0 11.7043 -0.48768
      CHANNELS 3 Zrotation Xrotation Yrotation
      JOINT neck
      {
        OFFSET 0 22.1894 -2.19456
        CHANNELS 3 Zrotation Xrotation Yrotation
        JOINT head
        {
          OFFSET -0.24384 7.07133 1.2192
          CHANNELS 3 Zrotation Xrotation Yrotation
          JOINT leftEye
          {
            OFFSET 4.14528 8.04674 8.04672
            CHANNELS 3 Zrotation Xrotation Yrotation
            End Site
            {
              OFFSET 1 0 0
            }
          }
          JOINT rightEye
          {
            OFFSET -3.6576 8.04674 8.04672
            CHANNELS 3 Zrotation Xrotation Yrotation
            End Site
            {
              OFFSET 1 0 0
            }
          }
        }
      }
      JOINT rCollar
      {
        OFFSET -2.68224 19.2634 -4.8768
        CHANNELS 3 Zrotation Xrotation Yrotation
        JOINT rShldr
        {
          OFFSET -8.77824 -1.95073 1.46304
          CHANNELS 3 Zrotation Xrotation Yrotation
          JOINT rForeArm
          {
            OFFSET -28.1742 -1.7115 0.48768
            CHANNELS 3 Zrotation Xrotation Yrotation
            JOINT rHand
            {
              OFFSET -22.5879 0.773209 7.07136
              CHANNELS 3 Zrotation Xrotation Yrotation
              JOINT rThumb1
              {
                OFFSET -1.2192 -0.487915 3.41376
                CHANNELS 3 Zrotation Xrotation Yrotation
                JOINT rThumb2
                {
                  OFFSET -3.37035 -0.52449 3.41376
                  CHANNELS 3 Zrotation Xrotation Yrotation
                  End Site
                  {
                    OFFSET -1.78271 -1.18214 1.43049
                  }
                }
              }
              JOINT rIndex1
              {
                OFFSET -7.75947 0.938293 5.60832
                CHANNELS 3 Zrotation Xrotation Yrotation
                JOINT rIndex2
                {
                  OFFSET -2.54057 -0.884171 1.56538
                  CHANNELS 3 Zrotation Xrotation Yrotation
                  End Site
                  {
                    OFFSET -1.62519 -0.234802 1.16502
                  }
                }
              }
              JOINT rMid1
              {
                OFFSET -8.24714 1.18213 3.41376
                CHANNELS 3 Zrotation Xrotation Yrotation
                JOINT rMid2
                {
                  OFFSET -3.10165 -0.590103 1.0647
                  CHANNELS 3 Zrotation Xrotation Yrotation
                  End Site
                  {
                    OFFSET -2.48547 -0.328903 0.83742
                  }
                }
              }
              JOINT rRing1
              {
                OFFSET -8.82822 0.546677 1.51678
                CHANNELS 3 Zrotation Xrotation Yrotation
                JOINT rRing2
                {
                  OFFSET -2.60934 -0.819778 -0.0198488
                  CHANNELS 3 Zrotation Xrotation Yrotation
                  End Site
                  {
                    OFFSET -2.33842 -0.294052 0.168128
                  }
                }
              }
              JOINT rPinky1
              {
                OFFSET -8.27202 -0.0477905 -0.4584
                CHANNELS 3 Zrotation Xrotation Yrotation
                JOINT rPinky2
                {
                  OFFSET -1.82734 -0.647385 -0.700984
                  CHANNELS 3 Zrotation Xrotation Yrotation
                  End Site
                  {
                    OFFSET -1.69225 -0.51767 -0.607171
                  }
                }
              }
            }
          }
        }
      }
      JOINT lCollar
      {
        OFFSET 2.68224 19.2634 -4.8768
        CHANNELS 3 Zrotation Xrotation Yrotation
        JOINT lShldr
        {
          OFFSET 8.77824 -1.95073 1.46304
          CHANNELS 3 Zrotation Xrotation Yrotation
          JOINT lForeArm
          {
            OFFSET 28.1742 -1.7115 0.48768
            CHANNELS 3 Zrotation Xrotation Yrotation
            JOINT lHand
            {
              OFFSET 22.5879 0.773209 7.07136
              CHANNELS 3 Zrotation Xrotation Yrotation
              JOINT lThumb1
              {
                OFFSET 1.2192 -0.487915 3.41376
                CHANNELS 3 Zrotation Xrotation Yrotation
                JOINT lThumb2
                {
                  OFFSET 3.37035 -0.52449 3.41376
                  CHANNELS 3 Zrotation Xrotation Yrotation
                  End Site
                  {
                    OFFSET 1.78271 -1.18214 1.43049
                  }
                }
              }
              JOINT lIndex1
              {
                OFFSET 7.75947 0.938293 5.60832
                CHANNELS 3 Zrotation Xrotation Yrotation
                JOINT lIndex2
                {
                  OFFSET 2.54057 -0.884171 1.56538
                  CHANNELS 3 Zrotation Xrotation Yrotation
                  End Site
                  {
                    OFFSET 1.62519 -0.234802 1.16502
                  }
                }
              }
              JOINT lMid1
              {
                OFFSET 8.24714 1.18213 3.41376
                CHANNELS 3 Zrotation Xrotation Yrotation
                JOINT lMid2
                {
                  OFFSET 3.10165 -0.590103 1.0647
                  CHANNELS 3 Zrotation Xrotation Yrotation
                  End Site
                  {
                    OFFSET 2.48547 -0.328903 0.83742
                  }
                }
              }
              JOINT lRing1
              {
                OFFSET 8.82822 0.546677 1.51678
                CHANNELS 3 Zrotation Xrotation Yrotation
                JOINT lRing2
                {
                  OFFSET 2.60934 -0.819778 -0.0198488
                  CHANNELS 3 Zrotation Xrotation Yrotation
                  End Site
                  {
                    OFFSET 2.33842 -0.294052 0.168128
                  }
                }
              }
              JOINT lPinky1
              {
                OFFSET 8.27202 -0.0477905 -0.4584
                CHANNELS 3 Zrotation Xrotation Yrotation
                JOINT lPinky2
                {
                  OFFSET 1.82734 -0.647385 -0.700984
                  CHANNELS 3 Zrotation Xrotation Yrotation
                  End Site
                  {
                    OFFSET 1.69225 -0.51767 -0.607171
                  }
                }
              }
            }
          }
        }
      }
    }
  }
  JOINT rButtock
  {
    OFFSET -8.77824 4.35084 1.2192
    CHANNELS 3 Zrotation Xrotation Yrotation
    JOINT rThigh
    {
      OFFSET 0 -1.70687 -2.19456
      CHANNELS 3 Zrotation Xrotation Yrotation
      JOINT rShin
      {
        OFFSET 0 -36.8199 0.73152
        CHANNELS 3 Zrotation Xrotation Yrotation
        JOINT rFoot
        {
          OFFSET 0.73152 -45.1104 -5.12064
          CHANNELS 3 Zrotation Xrotation Yrotation
          End Site
          {
            OFFSET -1.1221 -3.69964 12.103
          }
        }
      }
    }
  }
  JOINT lButtock
  {
    OFFSET 8.77824 4.35084 1.2192
    CHANNELS 3 Zrotation Xrotation Yrotation
    JOINT lThigh
    {
      OFFSET 0 -1.70687 -2.19456
      CHANNELS 3 Zrotation Xrotation Yrotation
      JOINT lShin
      {
        OFFSET 0 -36.8199 0.73152
        CHANNELS 3 Zrotation Xrotation Yrotation
        JOINT lFoot
        {
          OFFSET -0.73152 -45.1104 -5.12064
          CHANNELS 3 Zrotation Xrotation Yrotation
          End Site
          {
            OFFSET 1.1221 -3.69964 12.103
          }
        }
      }
    }
  }
}
MOTION
Frames:	4
Frame Time:	0.00833333
-163.83676 58.973297 -165.53029 -9.678547 36.623055 -9.437349 1.0299746 17.311138 9.166854 1.0296913 -12.753911 2.6179633 -6.851209 14.408826 -7.8519893 10.306029 -31.93041 -12.5861435 0.009644276 0.041923195 -0.16187373 0.052806977 -0.07744789 0.05663145 -0.015006135 0.17365028 -0.11705292 19.887669 15.579599 68.85121 -11.436531 -30.918156 56.365395 -4.660214 -17.033382 -3.949241 -0.008190192 0.04023131 0.14829601 -0.05610315 -0.1253503 -0.008095822 0.012416355 -0.15018292 -0.068242736 7.7741103 5.480794 0.3390182 0.063405775 0.07885981 -0.18286489 2.8726537 1.0216769 0.14170852 0.008982419 -0.0092706205 0.15163726 10.304221 0.7426411 0.017155537 0.013485749 -0.104728825 0.08979374 2.1696525 -0.8368932 0.016078657 -0.041925233 -0.11062295 0.22049367 118.31349 79.16392 66.027534 31.991447 -32.721024 -75.72426 -6.0658345 -10.651427 -1.3907857 0.0764664 0.11315059 -0.052668948 0.04530322 0.21052653 -0.05679879 0.09387324 0.3087437 0.091891915 -7.7924604 5.694076 -0.5842136 -0.18555081 0.19513737 0.15435916 -2.9594278 0.9703152 -0.027173294 0.04288511 -0.11258768 0.050097432 -10.19535 0.4212353 -0.16937901 -0.042182937 0.27994877 0.18137634 -2.1086497 -0.72619206 0.13095795 0.04718311 -0.07251656 -0.014258167 -34.314533 -53.519257 -31.57685 -3.3768034 70.88471 12.053469 2.0098362 23.609426 10.660715 0.08354365 0.02473988 -0.11598979 23.050653 -54.38865 30.462978 -176.48279 87.527245 176.76044 6.267226 -19.568575 20.890533
-165.49643 61.4159 -163.264 -12.120292 40.222607 -11.833606 0.09057355 17.267914 8.674116 1.9248809 -12.910555 2.5529108 -7.4453125 13.845613 -7.7112374 11.120319 -31.841787 -11.730791 -0.01094235 0.042406984 -0.16078953 0.07366872 -0.06014695 0.011106987 -0.015643027 0.14089872 -0.11135427 14.460685 14.821044 67.73637 -13.705038 -29.997257 56.16732 -4.150956 -8.066663 -2.1008031 -0.012834684 -0.022997726 0.1325757 -0.12834863 -0.11281848 0.024260294 -0.0026572184 -0.17086595 -0.09562143 7.818552 5.482154 0.38940403 0.024477297 0.109229065 -0.17294417 2.8521066 0.992145 0.15766817 -0.012971745 0.011222184 0.16170184 10.280705 0.7860314 0.012495233 0.0068714046 -0.12910676 0.048377402 2.186437 -0.84894675 -0.036729734 -0.024570879 -0.13260631 0.24832523 58.8325 83.2867 -58.053165 31.9389 -34.187332 -77.038795 -4.858236 -12.392681 0.37774566 0.11435211 0.08688468 -0.03148702 0.115238 0.20045586 -0.03416357 0.09343319 0.2890938 0.11808068 -7.824455 5.615037 -0.5615512 -0.11778422 0.15941167 0.10575341 -2.9377735 0.9596508 -0.047886528 0.043302596 -0.106637925 0.07397542 -10.214814 0.44560316 -0.10017349 -0.04128506 0.25106204 0.16545779 -2.1233966 -0.70489264 0.12746143 0.018320812 -0.03632134 0.020696254 -31.32435 -53.34492 -35.18811 -3.1774614 70.350105 12.723061 1.7225075 20.605532 10.685987 0.10041881 0.028176026 -0.12907538 23.428713 -54.574722 29.123539 -175.03569 87.81708 177.26994 6.402014 -20.158432 23.22636
-166.22527 62.520023 -161.08118 -16.401438 47.284702 -16.056047 -0.8845834 17.12499 8.112611 2.1569922 -13.0403385 2.5613825 -7.8775287 13.597608 -7.7948117 11.78326 -32.61453 -11.56079 -0.064733945 0.049112458 -0.14505915 0.03849623 -0.047404546 -0.041463632 0.004533486 0.117486425 -0.091544986 11.584909 12.194309 65.91143 -16.631052 -27.328701 54.965908 -1.7634802 -2.9906442 0.2678306 -0.0023886743 -0.078334495 0.10008102 -0.17713185 -0.06592275 0.056866754 -0.02965707 -0.13074538 -0.10819087 7.7979965 5.458162 0.39769876 0.004582954 0.08924734 -0.1591142 2.8345308 1.0032015 0.1601696 -0.03805826 0.0049935314 0.12424178 10.253357 0.79896814 0.013800192 -0.017821208 -0.13145117 0.036743518 2.2193406 -0.78996253 -0.10737358 0.0021631108 -0.140091 0.22158764 53.09443 68.38836 -127.16013 32.11966 -36.08161 -79.43357 -2.3193433 -18.587826 3.3383813 0.15060277 0.010230429 0.04297244 0.19471385 0.14475867 0.009332193 0.10702497 0.26534593 0.12036255 -7.8334384 5.5533895 -0.52728003 -0.06184338 0.14341775 0.057748374 -2.9326007 0.923026 -0.08344482 0.033386026 -0.093203254 0.05354148 -10.246304 0.48092648 -0.05570478 -0.024597615 0.20862132 0.13930437 -2.140373 -0.6862211 0.16036332 0.021957807 -0.005726189 0.07571158 -29.755613 -54.343845 -40.065514 -1.7468209 69.92882 12.903662 0.8200721 17.600777 8.725474 0.13098268 -0.0027924636 -0.17145403 24.162743 -54.375412 27.511055 -173.11508 89.339806 177.42644 6.5016418 -19.857683 25.167547
-165.89584 63.783768 -158.31511 -22.17261 54.282967 -21.390564 -2.0847137 16.767385 8.222229 1.561679 -13.082991 2.7067957 -7.993935 13.75359 -8.079367 11.786776 -33.663174 -12.40127 -0.13123463 0.03171719 -0.13086362 -0.06327641 -0.04242255 -0.075891726 0.013597486 0.100617215 -0.051307116 12.004331 7.8667064 64.1317 -18.878832 -23.594257 53.17148 1.4329073 -3.6055357 2.5360596 0.008503099 -0.11131332 0.07658217 -0.18153825 0.01788676 0.07173048 -0.057564504 -0.061968904 -0.12510179 7.7642646 5.4238825 0.36599138 -0.015860865 0.011269695 -0.15179706 2.8230312 1.028467 0.14277351 -0.064709775 0.0024375627 0.046952274 10.223783 0.7932638 -0.0028086975 -0.06681348 -0.09918758 0.049169462 2.249652 -0.688518 -0.15850835 0.018958753 -0.12906675 0.1949643 87.334946 58.195965 -176.21828 31.86153 -37.474895 -81.750534 1.0904893 -26.864658 5.936694 0.15830144 -0.09283995 0.1266284 0.24541125 0.05509703 0.04914018 0.13507776 0.2534509 0.10278771 -7.800771 5.51766 -0.51084274 -0.04401796 0.16976364 0.0026940978 -2.9377804 0.8974568 -0.13162345 0.028358856 -0.09380085 -0.014066897 -10.270836 0.5160932 -0.06099446 0.008124957 0.17683215 0.09726459 -2.1533933 -0.66609967 0.19014671 0.072241075 0.008245683 0.15001124 -31.032867 -55.7044 -43.41313 -0.52320665 69.02256 11.584238 -0.36991444 16.043161 6.0195084 0.17724882 -0.025086436 -0.20362519 24.045803 -53.620388 27.047047 4.045454 86.89428 -6.262698 6.508448 -18.551296 25.878654
